<?xml version="1.0" encoding="UTF-8"?>
<svg xmlns="http://www.w3.org/2000/svg" xmlns:xlink="http://www.w3.org/1999/xlink" width="100px" height="100px" viewBox="0 0 100 100" version="1.1">
<g id="surface1">
<path style=" stroke:none;fill-rule:nonzero;fill:rgb(1.176471%,0.392157%,1.568627%);fill-opacity:1;" d="M 88.207031 43.039062 L 88.207031 33.480469 L 76.84375 31.625 C 76.164062 28.9375 75.113281 26.40625 73.714844 24.085938 L 80.34375 14.636719 L 73.589844 7.886719 L 64.265625 14.59375 C 61.941406 13.183594 59.390625 12.109375 56.683594 11.4375 L 54.699219 0.125 L 45.144531 0.125 L 43.308594 11.402344 C 40.59375 12.070312 38.035156 13.125 35.703125 14.527344 L 26.40625 7.886719 L 19.652344 14.636719 L 26.191406 23.988281 C 24.777344 26.332031 23.703125 28.882812 23.019531 31.617188 L 11.792969 33.480469 L 11.792969 43.035156 L 23.007812 45.019531 C 23.683594 47.75 24.761719 50.308594 26.175781 52.652344 L 19.550781 61.917969 L 26.304688 68.675781 L 35.664062 62.125 C 38.003906 63.527344 40.554688 64.59375 43.269531 65.257812 L 45.144531 76.542969 L 54.699219 76.542969 L 56.703125 65.230469 C 59.398438 64.546875 61.945312 63.472656 64.269531 62.0625 L 73.695312 68.679688 L 80.445312 61.921875 L 73.71875 52.582031 C 75.113281 50.257812 76.167969 47.722656 76.839844 45.027344 Z M 50 51.65625 C 42.640625 51.65625 36.675781 45.695312 36.675781 38.335938 C 36.675781 30.980469 42.640625 25.015625 50 25.015625 C 57.359375 25.015625 63.320312 30.980469 63.320312 38.335938 C 63.324219 45.695312 57.359375 51.65625 50 51.65625 Z M 50 51.65625 "/>
<path style=" stroke:none;fill-rule:nonzero;fill:rgb(1.176471%,0.392157%,1.568627%);fill-opacity:1;" d="M 92.308594 72.949219 L 92.308594 88.335938 C 92.308594 90.453125 90.585938 92.179688 88.460938 92.179688 L 11.539062 92.179688 C 9.414062 92.179688 7.691406 90.453125 7.691406 88.335938 L 7.691406 72.949219 L 0 72.949219 L 0 88.335938 C 0 94.703125 5.167969 99.875 11.539062 99.875 L 88.460938 99.875 C 94.832031 99.875 100 94.703125 100 88.335938 L 100 72.949219 Z M 92.308594 72.949219 "/>
</g>
</svg>
