<?xml version="1.0" encoding="UTF-8"?>
<svg xmlns="http://www.w3.org/2000/svg" xmlns:xlink="http://www.w3.org/1999/xlink" width="100px" height="100px" viewBox="0 0 100 100" version="1.1">
<g id="surface1">
<path style=" stroke:none;fill-rule:nonzero;fill:rgb(0%,0%,0%);fill-opacity:1;" d="M 50 8.332031 C 31.589844 8.332031 16.667969 23.257812 16.667969 41.667969 L 16.667969 49.582031 C 14.125 51.796875 12.617188 54.964844 12.5 58.332031 C 12.695312 63.277344 15.902344 67.597656 20.582031 69.207031 C 26 82.167969 36.875 91.667969 50 91.667969 L 62.5 91.667969 L 62.5 83.332031 L 50 83.332031 C 40.582031 83.332031 32.042969 76.25 27.75 65.042969 L 26.875 62.75 L 24.417969 62.5 C 22.347656 62.207031 20.8125 60.425781 20.832031 58.332031 C 20.84375 56.855469 21.636719 55.488281 22.917969 54.75 L 25 53.542969 L 25 45.832031 C 25 43.53125 26.867188 41.667969 29.167969 41.667969 L 70.832031 41.667969 C 73.132812 41.667969 75 43.53125 75 45.832031 L 75 66.667969 L 57.957031 66.667969 C 56.910156 63.726562 53.855469 62.011719 50.800781 62.644531 C 47.746094 63.28125 45.628906 66.070312 45.835938 69.179688 C 46.042969 72.292969 48.511719 74.777344 51.625 75 L 83.332031 75 C 87.9375 75 91.667969 71.269531 91.667969 66.667969 L 91.667969 58.332031 C 91.667969 53.730469 87.9375 50 83.332031 50 L 83.332031 41.667969 C 83.332031 23.257812 68.410156 8.332031 50 8.332031 Z M 50 8.332031 "/>
</g>
</svg>
