<?xml version="1.0" encoding="UTF-8"?>
<svg xmlns="http://www.w3.org/2000/svg" xmlns:xlink="http://www.w3.org/1999/xlink" width="100px" height="100px" viewBox="0 0 100 100" version="1.1">
<g id="surface1">
<path style=" stroke:none;fill-rule:nonzero;fill:rgb(0%,0%,0%);fill-opacity:1;" d="M 59.011719 24.53125 L 62.953125 20.589844 L 47.085938 4.722656 C 42.878906 0.515625 36.433594 -0.433594 31.242188 2.128906 C 35.476562 2.875 39.375 4.894531 42.480469 7.996094 Z M 59.011719 24.53125 "/>
<path style=" stroke:none;fill-rule:nonzero;fill:rgb(0%,0%,0%);fill-opacity:1;" d="M 1.957031 90.757812 C 0.96875 91.683594 0.414062 92.933594 0.394531 94.277344 C 0.371094 95.625 0.882812 96.890625 1.835938 97.84375 C 2.765625 98.773438 4 99.285156 5.316406 99.285156 C 5.34375 99.285156 5.371094 99.285156 5.398438 99.285156 C 6.742188 99.261719 7.992188 98.710938 8.914062 97.726562 L 30.417969 75.046875 L 24.628906 69.257812 Z M 1.957031 90.757812 "/>
<path style=" stroke:none;fill-rule:nonzero;fill:rgb(0%,0%,0%);fill-opacity:1;" d="M 27.453125 66.578125 L 33.097656 72.222656 L 45.074219 59.59375 L 40.085938 54.601562 Z M 27.453125 66.578125 "/>
<path style=" stroke:none;fill-rule:nonzero;fill:rgb(0%,0%,0%);fill-opacity:1;" d="M 95.601562 53.238281 L 79.085938 36.726562 L 75.148438 40.664062 L 92.328125 57.84375 C 95.429688 60.945312 97.449219 64.84375 98.191406 69.078125 C 100.753906 63.890625 99.808594 57.445312 95.601562 53.238281 Z M 95.601562 53.238281 "/>
<path style=" stroke:none;fill-rule:nonzero;fill:rgb(0%,0%,0%);fill-opacity:1;" d="M 58.417969 30.628906 L 69.046875 19.996094 L 79.679688 30.628906 L 69.046875 41.257812 Z M 58.417969 30.628906 "/>
<path style=" stroke:none;fill-rule:nonzero;fill:rgb(0%,0%,0%);fill-opacity:1;" d="M 42.910156 51.921875 L 47.753906 56.765625 L 62.988281 40.699219 L 58.976562 36.6875 Z M 42.910156 51.921875 "/>
</g>
</svg>
