<?xml version="1.0" encoding="UTF-8"?>
<svg xmlns="http://www.w3.org/2000/svg" xmlns:xlink="http://www.w3.org/1999/xlink" width="100px" height="100px" viewBox="0 0 100 100" version="1.1">
<g id="surface1">
<path style=" stroke:none;fill-rule:nonzero;fill:rgb(0%,0%,0%);fill-opacity:1;" d="M 89.0625 13.125 C 86.878906 11.714844 84.140625 11.480469 81.75 12.5 L 43.1875 27.6875 C 42.273438 28.058594 41.296875 28.25 40.3125 28.25 L 15.625 28.25 C 11.308594 28.25 7.8125 31.746094 7.8125 36.0625 L 7.8125 36.6875 L 0 36.6875 L 0 55.4375 L 7.8125 55.4375 L 7.8125 56.25 C 7.914062 60.492188 11.382812 63.875 15.625 63.875 L 25 83.75 C 26.296875 86.480469 29.039062 88.230469 32.0625 88.25 L 36 88.25 C 40.289062 88.214844 43.75 84.726562 43.75 80.4375 L 43.75 64.625 L 81.75 79.8125 C 82.683594 80.183594 83.679688 80.375 84.6875 80.375 C 86.25 80.351562 87.769531 79.871094 89.0625 79 C 91.148438 77.59375 92.425781 75.265625 92.5 72.75 L 92.5 19.5625 C 92.488281 16.980469 91.203125 14.570312 89.0625 13.125 Z M 35.9375 36.0625 L 35.9375 56.25 L 15.625 56.25 L 15.625 36.0625 Z M 35.9375 80.4375 L 32 80.4375 L 24.3125 63.875 L 35.9375 63.875 Z M 46.0625 57.1875 C 45.320312 56.808594 44.546875 56.496094 43.75 56.25 L 43.75 35.625 C 44.539062 35.460938 45.3125 35.230469 46.0625 34.9375 L 84.6875 19.5625 L 84.6875 72.5625 Z M 92.6875 38.25 L 92.6875 53.875 C 97.003906 53.875 100.5 50.378906 100.5 46.0625 C 100.5 41.746094 97.003906 38.25 92.6875 38.25 Z M 92.6875 38.25 "/>
</g>
</svg>
