<?xml version="1.0" encoding="UTF-8"?>
<svg xmlns="http://www.w3.org/2000/svg" xmlns:xlink="http://www.w3.org/1999/xlink" width="100px" height="100px" viewBox="0 0 100 100" version="1.1">
<g id="surface1">
<path style=" stroke:none;fill-rule:nonzero;fill:rgb(47.843137%,45.490196%,45.098039%);fill-opacity:1;" d="M 46.394531 39.375 C 46.355469 39.214844 46.316406 39.054688 46.285156 38.894531 C 45.695312 36.054688 46.109375 34.207031 46.988281 32.5625 C 47.199219 32.832031 47.441406 33.074219 47.703125 33.289062 C 48.207031 33.699219 48.8125 33.96875 49.453125 34.078125 L 50.019531 34.164062 C 50.578125 36.226562 51.5625 38.148438 52.910156 39.804688 C 54.332031 41.507812 55.933594 42.773438 57.683594 43.507812 C 57.632812 44.113281 57.550781 45.03125 57.445312 45.628906 C 57.398438 46.101562 57.300781 46.570312 57.152344 47.019531 L 52.65625 47.910156 C 49.640625 48.589844 45.984375 48.09375 46.347656 47.164062 C 47.636719 46.433594 47.929688 44.652344 47.582031 43.210938 C 47.273438 41.929688 46.722656 40.660156 46.394531 39.375 Z M 46.394531 39.375 "/>
<path style=" stroke:none;fill-rule:nonzero;fill:rgb(100%,100%,100%);fill-opacity:1;" d="M 78.851562 24.957031 C 79.339844 24.53125 79.992188 24.34375 80.632812 24.4375 C 81.265625 24.523438 81.820312 24.894531 82.144531 25.441406 C 82.332031 25.816406 82.4375 26.222656 82.457031 26.640625 C 82.59375 28.269531 82.277344 29.902344 81.546875 31.367188 C 81.203125 32.105469 80.703125 32.761719 80.082031 33.289062 C 79.578125 33.699219 78.976562 33.96875 78.335938 34.078125 C 78.335938 34.078125 78.226562 34.09375 78.035156 34.125 C 77.894531 34.660156 77.730469 35.113281 77.652344 35.351562 C 77.144531 36.730469 74.304688 41.5 70.726562 43.246094 L 70.757812 43.496094 C 70.8125 44.140625 70.894531 45.046875 70.996094 45.628906 C 71.023438 45.796875 71.046875 45.953125 71.070312 46.113281 L 71.078125 46.175781 C 71.203125 46.976562 71.378906 47.667969 72.546875 48.089844 C 72.546875 48.089844 71.039062 55.144531 64.105469 55.144531 C 57.171875 55.144531 55.894531 48.089844 55.894531 48.089844 C 57.324219 47.574219 57.265625 46.65625 57.445312 45.628906 C 57.550781 45.03125 57.632812 44.113281 57.683594 43.503906 C 55.933594 42.773438 54.332031 41.507812 52.910156 39.804688 C 51.5625 38.148438 50.578125 36.226562 50.019531 34.164062 C 49.667969 34.109375 49.453125 34.078125 49.453125 34.078125 C 48.8125 33.96875 48.207031 33.699219 47.703125 33.289062 C 47.082031 32.761719 46.582031 32.105469 46.238281 31.367188 C 45.507812 29.902344 45.195312 28.269531 45.328125 26.640625 C 45.347656 26.222656 45.453125 25.816406 45.640625 25.441406 C 45.96875 24.894531 46.523438 24.523438 47.152344 24.4375 C 47.796875 24.34375 48.445312 24.53125 48.9375 24.957031 C 48.9375 24.957031 49.117188 11.898438 64.023438 11.898438 C 80.152344 11.898438 78.851562 24.957031 78.851562 24.957031 Z M 78.851562 24.957031 "/>
<path style=" stroke:none;fill-rule:nonzero;fill:rgb(47.843137%,45.490196%,45.098039%);fill-opacity:1;" d="M 69.46875 14.128906 C 66.910156 16.292969 65.304688 17.410156 61.089844 19.671875 C 55.949219 22.429688 49.585938 24.453125 48.796875 24.527344 L 48.316406 24.574219 C 47.949219 24.429688 47.546875 24.382812 47.15625 24.4375 C 47.113281 24.445312 47.070312 24.453125 47.03125 24.460938 C 46.71875 23.265625 46.390625 21.992188 46.390625 21.992188 C 45.683594 20.386719 45.832031 16.515625 46.363281 13.886719 C 47.902344 6.273438 55.246094 0.675781 63.792969 0.675781 C 72.917969 0.675781 79.011719 5.71875 81.058594 13.746094 C 81.625 15.960938 82.164062 21.105469 81.097656 24.5625 C 80.949219 24.503906 80.792969 24.460938 80.636719 24.4375 C 80.140625 24.367188 79.640625 24.460938 79.207031 24.707031 C 77.214844 23.523438 75.425781 22.035156 73.898438 20.296875 C 72.070312 18.273438 70.519531 15.667969 69.699219 14.226562 "/>
<path style=" stroke:none;fill-rule:nonzero;fill:rgb(12.941176%,9.019608%,8.235294%);fill-opacity:1;" d="M 52.480469 47.273438 C 51.179688 47.558594 49.839844 47.636719 48.511719 47.507812 C 48.050781 47.472656 47.597656 47.378906 47.164062 47.226562 C 47.109375 47.210938 47.089844 47.199219 47.152344 47.226562 C 47.113281 47.210938 47.070312 47.191406 47.03125 47.167969 C 46.992188 47.144531 46.960938 47.125 46.925781 47.105469 C 46.832031 47.050781 46.953125 47.109375 46.953125 47.128906 C 46.949219 47.160156 46.851562 46.972656 46.925781 47.109375 C 46.980469 47.214844 46.929688 46.980469 46.976562 47.214844 C 46.960938 47.144531 46.921875 47.515625 46.984375 47.339844 L 46.679688 47.734375 C 48.5625 46.617188 48.585938 44.222656 48.035156 42.359375 C 47.679688 41.164062 47.195312 40.003906 46.933594 38.785156 C 46.6875 37.722656 46.613281 36.628906 46.710938 35.542969 C 46.820312 34.628906 47.101562 33.742188 47.539062 32.933594 C 47.933594 32.183594 46.796875 31.515625 46.398438 32.265625 C 45.695312 33.582031 45.335938 35.054688 45.347656 36.550781 C 45.367188 37.503906 45.488281 38.457031 45.714844 39.382812 C 45.953125 40.367188 46.320312 41.316406 46.628906 42.277344 C 47.039062 43.558594 47.445312 45.269531 46.351562 46.347656 C 46.09375 46.597656 45.769531 46.695312 45.6875 47.089844 C 45.621094 47.40625 45.714844 47.738281 45.9375 47.976562 C 46.308594 48.328125 46.773438 48.558594 47.277344 48.640625 C 49.066406 49.066406 51.050781 48.9375 52.832031 48.546875 C 53.660156 48.363281 53.308594 47.09375 52.480469 47.273438 Z M 52.480469 47.273438 "/>
<path style=" stroke:none;fill-rule:nonzero;fill:rgb(12.941176%,9.019608%,8.235294%);fill-opacity:1;" d="M 56.070312 48.726562 C 56.613281 48.554688 57.097656 48.226562 57.460938 47.785156 C 57.722656 47.425781 57.894531 47.011719 57.960938 46.574219 C 58.148438 45.5625 58.257812 44.535156 58.347656 43.507812 C 58.34375 43.144531 58.050781 42.851562 57.6875 42.847656 C 57.324219 42.855469 57.035156 43.144531 57.027344 43.507812 C 56.984375 43.996094 56.941406 44.484375 56.882812 44.972656 C 56.863281 45.121094 56.835938 45.304688 56.796875 45.535156 C 56.765625 45.714844 56.742188 45.898438 56.714844 46.078125 C 56.691406 46.238281 56.65625 46.402344 56.613281 46.5625 C 56.601562 46.605469 56.585938 46.652344 56.574219 46.699219 C 56.566406 46.71875 56.515625 46.847656 56.554688 46.753906 C 56.59375 46.660156 56.539062 46.785156 56.527344 46.804688 C 56.511719 46.839844 56.492188 46.875 56.46875 46.910156 C 56.449219 46.945312 56.425781 46.976562 56.402344 47.011719 C 56.472656 46.886719 56.414062 47.003906 56.382812 47.035156 C 56.320312 47.101562 56.253906 47.164062 56.183594 47.21875 C 56.296875 47.132812 56.136719 47.246094 56.125 47.253906 C 56.089844 47.273438 56.054688 47.296875 56.015625 47.316406 C 55.921875 47.371094 55.820312 47.414062 55.71875 47.453125 C 55.375 47.558594 55.171875 47.914062 55.257812 48.265625 C 55.355469 48.617188 55.71875 48.820312 56.070312 48.726562 Z M 56.070312 48.726562 "/>
<path style=" stroke:none;fill-rule:nonzero;fill:rgb(12.941176%,9.019608%,8.235294%);fill-opacity:1;" d="M 72.726562 47.453125 C 72.488281 47.367188 72.761719 47.476562 72.636719 47.421875 C 72.585938 47.398438 72.53125 47.375 72.480469 47.347656 C 72.390625 47.296875 72.300781 47.242188 72.214844 47.179688 C 72.289062 47.234375 72.230469 47.195312 72.191406 47.160156 C 72.15625 47.128906 72.125 47.097656 72.09375 47.066406 C 72.070312 47.042969 72.046875 47.011719 72.023438 46.988281 C 72.125 47.085938 72.03125 47 72.007812 46.960938 C 71.96875 46.902344 71.941406 46.824219 71.898438 46.769531 C 71.855469 46.71875 71.9375 46.886719 71.898438 46.773438 C 71.886719 46.734375 71.871094 46.699219 71.859375 46.660156 C 71.8125 46.503906 71.773438 46.339844 71.746094 46.179688 C 71.738281 46.136719 71.734375 46.097656 71.726562 46.050781 C 71.75 46.203125 71.714844 45.964844 71.710938 45.933594 C 71.691406 45.800781 71.667969 45.667969 71.648438 45.535156 C 71.628906 45.425781 71.609375 45.316406 71.59375 45.207031 C 71.585938 45.1875 71.585938 45.164062 71.582031 45.140625 C 71.574219 45.082031 71.566406 45.023438 71.5625 44.960938 C 71.503906 44.476562 71.460938 43.988281 71.417969 43.5 C 71.410156 43.136719 71.121094 42.847656 70.757812 42.839844 C 70.394531 42.839844 70.101562 43.136719 70.097656 43.5 C 70.144531 44.035156 70.191406 44.574219 70.257812 45.105469 C 70.296875 45.394531 70.339844 45.683594 70.386719 45.96875 C 70.398438 46.050781 70.410156 46.128906 70.425781 46.210938 C 70.414062 46.132812 70.445312 46.371094 70.453125 46.40625 C 70.464844 46.496094 70.480469 46.585938 70.5 46.679688 C 70.578125 47.09375 70.75 47.484375 71.003906 47.820312 C 71.367188 48.242188 71.839844 48.558594 72.371094 48.726562 C 72.722656 48.820312 73.085938 48.617188 73.183594 48.265625 C 73.273438 47.917969 73.070312 47.558594 72.722656 47.457031 Z M 72.726562 47.453125 "/>
<path style=" stroke:none;fill-rule:nonzero;fill:rgb(12.941176%,9.019608%,8.235294%);fill-opacity:1;" d="M 46.960938 21.660156 C 47.003906 21.757812 46.925781 21.554688 46.910156 21.515625 C 46.878906 21.414062 46.847656 21.308594 46.824219 21.207031 C 46.769531 20.984375 46.722656 20.765625 46.691406 20.542969 C 46.621094 20.042969 46.582031 19.542969 46.578125 19.039062 C 46.550781 17.828125 46.613281 16.613281 46.773438 15.40625 C 47.023438 13.332031 47.691406 11.332031 48.742188 9.523438 C 50.882812 5.898438 54.492188 3.289062 58.503906 2.101562 C 62.699219 0.867188 67.1875 1.085938 71.242188 2.722656 C 74.738281 4.210938 77.558594 6.941406 79.164062 10.386719 C 79.976562 12.109375 80.523438 13.945312 80.785156 15.835938 C 81.136719 18.085938 81.160156 20.375 80.851562 22.632812 C 80.765625 23.191406 80.644531 23.746094 80.488281 24.289062 C 80.25 25.105469 81.519531 25.453125 81.761719 24.640625 C 82.457031 22.253906 82.472656 19.660156 82.257812 17.199219 C 82.101562 15.125 81.652344 13.082031 80.914062 11.132812 C 79.40625 7.289062 76.703125 4.003906 73 2.09375 C 68.945312 0.00390625 64.015625 -0.484375 59.578125 0.464844 C 55.066406 1.40625 51.066406 3.988281 48.351562 7.710938 C 47.066406 9.503906 46.171875 11.546875 45.726562 13.710938 C 45.25 16.066406 45.03125 18.632812 45.4375 21.015625 C 45.511719 21.464844 45.640625 21.90625 45.820312 22.324219 C 46.007812 22.636719 46.410156 22.742188 46.722656 22.5625 C 47.03125 22.371094 47.132812 21.972656 46.960938 21.660156 Z M 46.960938 21.660156 "/>
<path style=" stroke:none;fill-rule:nonzero;fill:rgb(12.941176%,9.019608%,8.235294%);fill-opacity:1;" d="M 79.316406 25.425781 C 79.96875 24.890625 80.925781 24.976562 81.476562 25.617188 C 81.773438 25.996094 81.800781 26.539062 81.824219 27.003906 C 81.851562 27.570312 81.820312 28.140625 81.726562 28.703125 C 81.390625 30.667969 80.351562 33.066406 78.160156 33.441406 C 77.8125 33.539062 77.605469 33.902344 77.699219 34.253906 C 77.804688 34.597656 78.160156 34.800781 78.511719 34.714844 C 80.765625 34.328125 82.105469 32.207031 82.730469 30.179688 C 83.066406 29.09375 83.203125 27.957031 83.132812 26.820312 C 83.058594 25.730469 82.730469 24.703125 81.726562 24.132812 C 80.648438 23.535156 79.308594 23.675781 78.382812 24.492188 C 78.128906 24.75 78.128906 25.164062 78.382812 25.421875 C 78.644531 25.675781 79.054688 25.675781 79.316406 25.421875 Z M 79.316406 25.425781 "/>
<path style=" stroke:none;fill-rule:nonzero;fill:rgb(12.941176%,9.019608%,8.235294%);fill-opacity:1;" d="M 77.652344 32.417969 C 77.617188 33.058594 77.5 33.695312 77.300781 34.308594 C 77.230469 34.546875 77.152344 34.78125 77.070312 35.015625 C 77.050781 35.078125 77.03125 35.144531 77.007812 35.207031 C 76.980469 35.277344 76.925781 35.398438 76.992188 35.25 C 76.707031 35.875 76.375 36.476562 76.007812 37.058594 C 74.957031 38.796875 73.617188 40.34375 72.046875 41.632812 C 71.1875 42.347656 70.175781 42.859375 69.089844 43.132812 C 68.261719 43.324219 68.613281 44.597656 69.441406 44.40625 C 71.660156 43.898438 73.519531 42.300781 74.984375 40.628906 C 76.234375 39.253906 77.277344 37.703125 78.078125 36.027344 C 78.605469 34.894531 78.910156 33.667969 78.972656 32.417969 C 79 31.570312 77.679688 31.570312 77.652344 32.417969 Z M 77.652344 32.417969 "/>
<path style=" stroke:none;fill-rule:nonzero;fill:rgb(12.941176%,9.019608%,8.235294%);fill-opacity:1;" d="M 49.40625 24.492188 C 48.585938 23.765625 47.429688 23.5625 46.414062 23.964844 C 45.355469 24.402344 44.832031 25.3125 44.695312 26.414062 C 44.433594 28.644531 45.003906 30.894531 46.296875 32.734375 C 46.996094 33.753906 48.0625 34.464844 49.277344 34.710938 C 49.628906 34.796875 49.984375 34.59375 50.089844 34.25 C 50.183594 33.898438 49.976562 33.539062 49.628906 33.4375 C 47.4375 33.0625 46.398438 30.664062 46.0625 28.699219 C 45.972656 28.160156 45.941406 27.609375 45.964844 27.0625 C 45.980469 26.59375 46.003906 26.046875 46.289062 25.652344 C 46.542969 25.328125 46.921875 25.125 47.332031 25.078125 C 47.742188 25.035156 48.152344 25.160156 48.472656 25.421875 C 48.734375 25.671875 49.144531 25.671875 49.40625 25.421875 C 49.660156 25.164062 49.660156 24.75 49.40625 24.492188 Z M 49.40625 24.492188 "/>
<path style=" stroke:none;fill-rule:nonzero;fill:rgb(12.941176%,9.019608%,8.235294%);fill-opacity:1;" d="M 48.90625 32.199219 C 49.71875 36.875 52.25 41.457031 56.582031 43.714844 C 57.753906 44.324219 59.03125 44.707031 60.347656 44.84375 C 60.710938 44.839844 61.003906 44.546875 61.007812 44.183594 C 61 43.820312 60.707031 43.53125 60.347656 43.523438 C 55.875 43.058594 52.390625 39.050781 50.984375 35.023438 C 50.628906 33.988281 50.359375 32.925781 50.179688 31.851562 C 50.078125 31.5 49.71875 31.296875 49.367188 31.390625 C 49.019531 31.492188 48.816406 31.851562 48.90625 32.199219 Z M 48.90625 32.199219 "/>
<path style=" stroke:none;fill-rule:nonzero;fill:rgb(12.941176%,9.019608%,8.235294%);fill-opacity:1;" d="M 79.316406 24.003906 C 77.25 22.730469 75.40625 21.125 73.863281 19.253906 C 72.507812 17.578125 71.304688 15.78125 70.265625 13.890625 C 69.847656 13.15625 68.707031 13.820312 69.128906 14.558594 C 70.941406 17.746094 73.0625 20.777344 75.886719 23.15625 C 76.753906 23.886719 77.679688 24.550781 78.652344 25.140625 C 79.378906 25.582031 80.042969 24.441406 79.316406 24.003906 Z M 79.316406 24.003906 "/>
<path style=" stroke:none;fill-rule:nonzero;fill:rgb(12.941176%,9.019608%,8.235294%);fill-opacity:1;" d="M 48.796875 25.1875 C 49.648438 25.050781 50.480469 24.824219 51.28125 24.511719 C 52.835938 24 54.371094 23.429688 55.882812 22.808594 C 59.394531 21.402344 62.761719 19.664062 65.945312 17.625 C 67.335938 16.699219 68.667969 15.6875 69.933594 14.59375 C 70.1875 14.335938 70.1875 13.921875 69.933594 13.664062 C 69.675781 13.414062 69.261719 13.414062 69 13.664062 C 67.941406 14.578125 66.828125 15.429688 65.675781 16.222656 C 64.28125 17.160156 62.816406 17.984375 61.34375 18.785156 C 58.191406 20.484375 54.898438 21.910156 51.503906 23.050781 C 50.882812 23.261719 50.261719 23.460938 49.632812 23.644531 C 49.425781 23.707031 49.21875 23.765625 49.011719 23.816406 C 48.9375 23.832031 48.863281 23.847656 48.789062 23.867188 C 48.644531 23.898438 48.683594 23.882812 48.796875 23.871094 C 48.4375 23.878906 48.148438 24.171875 48.136719 24.53125 C 48.136719 24.894531 48.433594 25.1875 48.796875 25.191406 Z M 48.796875 25.1875 "/>
<path style=" stroke:none;fill-rule:nonzero;fill:rgb(100%,100%,100%);fill-opacity:1;" d="M 60.339844 65.082031 C 58.472656 58.984375 55.699219 49.90625 55.125 48.03125 C 55.652344 47.085938 56.324219 46.226562 57.109375 45.480469 C 58.996094 47.367188 61.203125 48.902344 63.625 50.019531 C 63.757812 50.082031 63.910156 50.15625 63.953125 50.296875 L 64.882812 50.296875 C 64.929688 50.15625 65.078125 50.082031 65.214844 50.019531 C 67.636719 48.902344 69.839844 47.367188 71.726562 45.480469 C 72.625 46.335938 73.375 47.335938 73.941406 48.4375 C 73.464844 50.394531 72.347656 54.332031 70.90625 58.382812 C 68.160156 66.082031 66.164062 71.320312 63.964844 76.609375 C 63.207031 74.484375 62.582031 72.335938 61.914062 70.191406 C 61.636719 69.300781 61.054688 67.40625 60.339844 65.082031 Z M 60.339844 65.082031 "/>
<path style=" stroke:none;fill-rule:nonzero;fill:rgb(100%,100%,100%);fill-opacity:1;" d="M 68.988281 55.660156 C 71.078125 53.582031 72.449219 51.0625 73.996094 48.546875 C 73.417969 47.402344 72.652344 46.367188 71.726562 45.480469 C 69.839844 47.367188 67.632812 48.902344 65.210938 50.019531 C 65.078125 50.082031 64.925781 50.15625 64.882812 50.296875 C 64.859375 50.425781 64.886719 50.554688 64.957031 50.664062 C 65.375 51.269531 65.824219 51.847656 66.304688 52.40625 C 67.222656 53.527344 68.375 54.902344 68.988281 55.660156 Z M 68.988281 55.660156 "/>
<path style=" stroke:none;fill-rule:nonzero;fill:rgb(100%,100%,100%);fill-opacity:1;" d="M 59.847656 55.660156 C 57.757812 53.582031 56.386719 51.0625 54.839844 48.546875 C 55.417969 47.402344 56.183594 46.367188 57.109375 45.480469 C 58.996094 47.367188 61.203125 48.902344 63.625 50.019531 C 63.757812 50.082031 63.910156 50.15625 63.953125 50.296875 C 63.976562 50.425781 63.949219 50.554688 63.878906 50.664062 C 63.460938 51.269531 63.011719 51.847656 62.53125 52.40625 C 61.613281 53.527344 60.460938 54.902344 59.847656 55.660156 Z M 59.847656 55.660156 "/>
<path style=" stroke:none;fill-rule:nonzero;fill:rgb(12.941176%,9.019608%,8.235294%);fill-opacity:1;" d="M 69.453125 56.125 C 71.035156 54.542969 72.265625 52.664062 73.421875 50.761719 C 73.707031 50.292969 73.992188 49.820312 74.273438 49.351562 C 74.421875 49.109375 74.652344 48.84375 74.652344 48.546875 C 74.652344 48.253906 74.429688 47.957031 74.285156 47.707031 C 73.726562 46.710938 73.019531 45.800781 72.191406 45.015625 C 71.929688 44.765625 71.515625 44.765625 71.257812 45.015625 C 69.65625 46.621094 67.8125 47.964844 65.796875 49.003906 C 65.355469 49.234375 64.703125 49.402344 64.402344 49.820312 C 64.097656 50.242188 64.214844 50.761719 64.492188 51.164062 C 65.0625 51.988281 65.738281 52.75 66.375 53.523438 C 67.089844 54.390625 67.8125 55.253906 68.519531 56.125 C 68.78125 56.378906 69.195312 56.378906 69.453125 56.125 C 69.703125 55.863281 69.703125 55.453125 69.453125 55.191406 C 68.730469 54.304688 67.996094 53.429688 67.269531 52.546875 C 66.871094 52.0625 66.472656 51.578125 66.085938 51.089844 C 65.953125 50.921875 65.515625 50.5 65.542969 50.296875 L 65.453125 50.628906 C 65.421875 50.691406 65.347656 50.679688 65.460938 50.628906 L 65.695312 50.519531 C 65.851562 50.445312 66.003906 50.375 66.15625 50.296875 C 66.449219 50.152344 66.742188 50 67.027344 49.839844 C 67.652344 49.492188 68.261719 49.117188 68.855469 48.710938 C 70.050781 47.894531 71.167969 46.96875 72.191406 45.945312 L 71.257812 45.945312 C 72.140625 46.792969 72.875 47.785156 73.421875 48.878906 L 73.421875 48.214844 C 71.933594 50.640625 70.546875 53.160156 68.519531 55.191406 C 67.921875 55.792969 68.855469 56.726562 69.453125 56.125 Z M 69.453125 56.125 "/>
<path style=" stroke:none;fill-rule:nonzero;fill:rgb(12.941176%,9.019608%,8.235294%);fill-opacity:1;" d="M 60.3125 55.191406 C 58.285156 53.160156 56.898438 50.640625 55.410156 48.214844 L 55.410156 48.882812 C 55.960938 47.789062 56.695312 46.796875 57.578125 45.949219 L 56.644531 45.949219 C 57.667969 46.972656 58.785156 47.898438 59.980469 48.710938 C 60.554688 49.105469 61.148438 49.472656 61.757812 49.8125 C 62.042969 49.972656 62.332031 50.125 62.628906 50.273438 C 62.78125 50.347656 62.933594 50.421875 63.085938 50.496094 C 63.167969 50.535156 63.25 50.570312 63.332031 50.609375 C 63.359375 50.621094 63.386719 50.636719 63.414062 50.652344 C 63.476562 50.6875 63.464844 50.679688 63.382812 50.628906 L 63.292969 50.296875 C 63.320312 50.496094 62.914062 50.882812 62.785156 51.046875 C 62.382812 51.550781 61.976562 52.050781 61.566406 52.546875 C 60.839844 53.429688 60.101562 54.304688 59.382812 55.191406 C 59.132812 55.453125 59.132812 55.863281 59.382812 56.125 C 59.640625 56.378906 60.054688 56.378906 60.3125 56.125 C 61.601562 54.542969 62.957031 53.007812 64.1875 51.375 C 64.445312 51.09375 64.597656 50.726562 64.617188 50.34375 C 64.601562 49.667969 63.953125 49.457031 63.445312 49.210938 C 62.4375 48.714844 61.46875 48.144531 60.546875 47.503906 C 59.484375 46.765625 58.488281 45.933594 57.578125 45.015625 C 57.316406 44.765625 56.90625 44.765625 56.644531 45.015625 C 55.816406 45.804688 55.109375 46.710938 54.550781 47.707031 C 54.386719 47.933594 54.265625 48.191406 54.195312 48.460938 C 54.152344 48.78125 54.371094 49.039062 54.527344 49.300781 C 54.824219 49.785156 55.117188 50.273438 55.414062 50.761719 C 56.570312 52.664062 57.800781 54.542969 59.382812 56.125 C 59.980469 56.726562 60.914062 55.792969 60.3125 55.191406 Z M 60.3125 55.191406 "/>
<path style=" stroke:none;fill-rule:nonzero;fill:rgb(74.117647%,74.117647%,74.117647%);fill-opacity:1;" d="M 39.101562 56.484375 C 40.234375 54.613281 41.78125 53.855469 43.574219 52.964844 C 46.015625 51.753906 51.21875 49.40625 53.683594 48.097656 L 54.988281 47.40625 L 55.160156 47.96875 C 55.796875 50.050781 60.890625 66.902344 61.914062 70.191406 C 62.582031 72.335938 63.203125 74.484375 63.960938 76.609375 C 66.164062 71.320312 68.160156 66.082031 70.902344 58.382812 C 72.144531 54.9375 73.199219 51.425781 74.066406 47.867188 C 74.355469 48.003906 74.5625 48.105469 74.5625 48.105469 C 77.488281 49.492188 82.308594 51.898438 84.753906 53.113281 C 85.199219 53.335938 85.78125 53.6875 86.195312 53.898438 C 87.519531 54.125 88.375 55.078125 89.222656 56.484375 C 89.757812 57.371094 90.3125 59.195312 90.550781 60.332031 C 91.335938 64.523438 93.128906 86.3125 94.070312 99.339844 L 44.070312 99.339844 C 44.894531 93.179688 45.765625 86.34375 45.578125 85.070312 C 45.417969 83.996094 45.257812 82.910156 45.09375 81.820312 L 44.984375 81.101562 L 44.191406 82.800781 C 43.730469 83.785156 42.382812 85.648438 41.320312 86.855469 C 40.246094 88.078125 40.046875 88.433594 38.550781 89.609375 C 36.210938 91.445312 33.226562 92.203125 30.351562 90.355469 C 27.535156 88.542969 26.949219 85.617188 25.992188 82.871094 C 24.105469 77.472656 22.386719 68.695312 22.007812 65.941406 C 23.324219 65.417969 30.667969 62.84375 31.488281 62.820312 C 31.816406 63.5 33.179688 67.769531 34.417969 71.5 C 34.738281 70.371094 35.125 69.265625 35.582031 68.1875 C 36.417969 64.628906 37.523438 61.1875 38.039062 59.21875 C 38.351562 58.019531 39.019531 56.175781 39.964844 55.054688 C 40.273438 54.804688 40.605469 54.578125 40.953125 54.378906 Z M 39.101562 56.484375 "/>
<path style=" stroke:none;fill-rule:nonzero;fill:rgb(74.117647%,74.117647%,74.117647%);fill-opacity:1;" d="M 55.554688 49.261719 C 55.371094 48.660156 55.234375 48.214844 55.160156 47.972656 L 55.019531 47.507812 L 54.671875 47.675781 C 52.476562 48.734375 49.414062 51.375 48.203125 53.035156 C 49.433594 54.460938 51.128906 56.476562 51.429688 56.902344 C 51.355469 56.953125 49.875 57.890625 49.8125 58.277344 C 49.769531 58.542969 49.929688 58.898438 50.347656 59.542969 C 51.226562 60.90625 57.480469 71.632812 59.726562 74.949219 L 65.59375 82.824219 C 65.410156 81.027344 64.980469 79.265625 64.320312 77.582031 C 63.394531 75.144531 62.683594 72.664062 61.914062 70.191406 C 61.007812 67.289062 56.933594 53.8125 55.554688 49.261719 Z M 55.554688 49.261719 "/>
<path style=" stroke:none;fill-rule:nonzero;fill:rgb(74.117647%,74.117647%,74.117647%);fill-opacity:1;" d="M 77.453125 50.128906 C 76.414062 49.234375 75.285156 48.453125 74.085938 47.789062 C 73.214844 51.375 72.152344 54.914062 70.902344 58.382812 C 68.15625 66.082031 66.164062 71.320312 63.960938 76.609375 C 64.078125 76.933594 64.195312 77.261719 64.320312 77.585938 C 64.78125 78.777344 65.132812 80.011719 65.375 81.269531 C 66.929688 78.390625 68.792969 74.953125 68.792969 74.953125 C 71.042969 71.632812 77.292969 60.910156 78.171875 59.542969 C 78.589844 58.898438 78.753906 58.542969 78.710938 58.28125 C 78.644531 57.890625 77.164062 56.953125 77.089844 56.902344 C 77.390625 56.476562 79.085938 54.464844 80.316406 53.039062 C 79.472656 51.964844 78.511719 50.988281 77.453125 50.128906 Z M 77.453125 50.128906 "/>
<path style=" stroke:none;fill-rule:nonzero;fill:rgb(100%,100%,100%);fill-opacity:1;" d="M 22.378906 54.371094 C 21.839844 52.976562 20.140625 51.628906 19.449219 50.003906 C 19.078125 49.128906 18.761719 48.347656 19.617188 47.765625 C 20.382812 47.242188 21 47.632812 21.617188 48.214844 C 22.980469 49.476562 24.265625 50.820312 25.464844 52.242188 C 26.613281 53.628906 27.234375 54.636719 27.753906 56.4375 C 27.980469 57.226562 27.765625 58.507812 28.089844 59.265625 C 28.335938 59.855469 28.960938 60.792969 29.398438 61.722656 L 30.445312 63.367188 L 23.574219 65.628906 L 23.324219 65.058594 C 22.773438 64.121094 22.042969 63.664062 21.386719 63.207031 C 19.933594 62.515625 17.925781 62 16.394531 61.550781 C 14.773438 61.074219 13.628906 60.402344 12.382812 59.644531 C 11.230469 58.945312 9.679688 57.671875 8.625 56.855469 C 7.09375 55.671875 4.429688 52.035156 7.050781 50.824219 C 7.785156 50.625 9.105469 50.550781 9.746094 50.960938 C 9.96875 50.992188 10.367188 50.78125 10.738281 50.851562 C 12.101562 51.121094 13.503906 52.019531 14.761719 52.609375 C 15.410156 52.914062 15.90625 53.320312 16.621094 53.484375 C 17.367188 53.652344 21.453125 54.355469 22.613281 54.617188 Z M 22.378906 54.371094 "/>
<path style=" stroke:none;fill-rule:nonzero;fill:rgb(12.941176%,9.019608%,8.235294%);fill-opacity:1;" d="M 29.871094 61.234375 C 29.652344 60.78125 29.410156 60.34375 29.164062 59.90625 C 28.96875 59.597656 28.800781 59.269531 28.664062 58.925781 C 28.410156 58.136719 28.597656 57.246094 28.429688 56.429688 C 28.082031 54.71875 27.09375 53.191406 26.003906 51.863281 C 25.328125 51.039062 24.613281 50.253906 23.867188 49.496094 C 23.183594 48.75 22.453125 48.050781 21.679688 47.402344 C 20.84375 46.75 19.851562 46.683594 19.019531 47.398438 C 18.300781 48.011719 18.324219 48.929688 18.636719 49.75 C 19.019531 50.699219 19.546875 51.582031 20.203125 52.367188 C 20.742188 53.046875 21.414062 53.730469 21.742188 54.546875 C 21.847656 54.890625 22.203125 55.09375 22.554688 55.007812 C 22.902344 54.910156 23.109375 54.546875 23.015625 54.195312 C 22.417969 52.714844 21.152344 51.671875 20.347656 50.3125 C 20.167969 50.007812 20.015625 49.6875 19.890625 49.351562 C 19.773438 49.113281 19.722656 48.851562 19.738281 48.589844 C 19.855469 48.332031 20.117188 48.171875 20.402344 48.179688 C 20.722656 48.222656 21.015625 48.554688 21.234375 48.761719 C 22.625 50.050781 23.929688 51.425781 25.140625 52.882812 C 26.054688 54.007812 26.875 55.339844 27.160156 56.78125 C 27.324219 57.632812 27.128906 58.527344 27.417969 59.363281 C 27.730469 60.253906 28.324219 61.050781 28.730469 61.898438 C 28.917969 62.210938 29.316406 62.316406 29.632812 62.136719 C 29.941406 61.949219 30.046875 61.550781 29.871094 61.234375 Z M 29.871094 61.234375 "/>
<path style=" stroke:none;fill-rule:nonzero;fill:rgb(12.941176%,9.019608%,8.235294%);fill-opacity:1;" d="M 22.789062 53.980469 C 21.335938 53.65625 19.863281 53.421875 18.398438 53.152344 C 17.828125 53.046875 17.238281 52.96875 16.679688 52.816406 C 16.144531 52.671875 15.691406 52.335938 15.199219 52.089844 C 14.671875 51.824219 14.140625 51.558594 13.613281 51.289062 C 12.976562 50.945312 12.316406 50.652344 11.636719 50.410156 C 11.3125 50.285156 10.972656 50.207031 10.628906 50.179688 C 10.328125 50.167969 10.019531 50.308594 9.746094 50.300781 L 10.078125 50.390625 C 9.261719 49.898438 8.179688 49.949219 7.273438 50.101562 C 6.421875 50.246094 5.714844 50.832031 5.421875 51.640625 C 4.871094 53.175781 5.964844 54.886719 6.882812 56.035156 C 7.347656 56.601562 7.875 57.113281 8.457031 57.554688 C 9.308594 58.222656 10.15625 58.902344 11.035156 59.535156 C 12.742188 60.777344 14.648438 61.71875 16.671875 62.316406 C 17.863281 62.660156 19.058594 62.984375 20.21875 63.425781 C 21.261719 63.777344 22.15625 64.46875 22.753906 65.390625 C 23.195312 66.117188 24.335938 65.453125 23.894531 64.726562 C 23.464844 64.039062 22.894531 63.445312 22.222656 62.988281 C 21.582031 62.558594 20.878906 62.226562 20.144531 61.996094 C 18.628906 61.464844 17.039062 61.144531 15.542969 60.5625 C 14.175781 60.003906 12.886719 59.273438 11.703125 58.394531 C 11.082031 57.949219 10.476562 57.476562 9.875 57.003906 C 9.402344 56.65625 8.953125 56.285156 8.519531 55.886719 C 7.722656 55.144531 7.113281 54.222656 6.738281 53.199219 C 6.699219 53.082031 6.667969 52.960938 6.640625 52.839844 C 6.617188 52.761719 6.609375 52.679688 6.609375 52.59375 C 6.574219 52.390625 6.605469 52.179688 6.691406 51.992188 C 6.652344 52.09375 6.707031 51.964844 6.71875 51.941406 C 6.75 51.894531 6.777344 51.847656 6.808594 51.800781 C 6.738281 51.894531 6.878906 51.726562 6.878906 51.726562 C 6.910156 51.691406 6.945312 51.660156 6.980469 51.628906 C 7.167969 51.488281 7.390625 51.402344 7.621094 51.375 C 8.132812 51.292969 8.832031 51.253906 9.28125 51.457031 C 9.445312 51.550781 9.628906 51.609375 9.816406 51.621094 C 10.019531 51.601562 10.21875 51.566406 10.414062 51.511719 C 10.769531 51.453125 11.179688 51.640625 11.507812 51.761719 C 12.292969 52.085938 13.0625 52.453125 13.804688 52.867188 C 14.515625 53.273438 15.25 53.644531 15.996094 53.976562 C 16.429688 54.121094 16.871094 54.226562 17.324219 54.289062 C 17.910156 54.398438 18.492188 54.503906 19.078125 54.613281 C 20.199219 54.816406 21.328125 55.003906 22.4375 55.25 C 23.265625 55.4375 23.617188 54.164062 22.789062 53.980469 Z M 22.789062 53.980469 "/>
<path style=" stroke:none;fill-rule:nonzero;fill:rgb(12.941176%,9.019608%,8.235294%);fill-opacity:1;" d="M 18.429688 58.175781 C 20.1875 58.460938 22.3125 58.359375 23.730469 59.605469 C 23.992188 59.855469 24.402344 59.855469 24.664062 59.605469 C 24.917969 59.347656 24.917969 58.929688 24.664062 58.671875 C 23.847656 57.980469 22.863281 57.519531 21.8125 57.328125 C 20.8125 57.121094 19.773438 57.0625 18.78125 56.902344 C 18.429688 56.816406 18.074219 57.019531 17.972656 57.363281 C 17.878906 57.714844 18.082031 58.078125 18.429688 58.175781 Z M 18.429688 58.175781 "/>
<path style=" stroke:none;fill-rule:nonzero;fill:rgb(12.941176%,9.019608%,8.235294%);fill-opacity:1;" d="M 9.941406 52.453125 C 10.726562 53.222656 11.617188 53.875 12.585938 54.394531 C 13.523438 54.921875 14.507812 55.363281 15.523438 55.71875 C 15.875 55.816406 16.238281 55.609375 16.335938 55.257812 C 16.429688 54.90625 16.226562 54.542969 15.875 54.445312 C 14.964844 54.128906 14.089844 53.730469 13.253906 53.253906 C 12.378906 52.792969 11.578125 52.210938 10.871094 51.523438 C 10.277344 50.914062 9.34375 51.847656 9.941406 52.453125 Z M 9.941406 52.453125 "/>
<path style=" stroke:none;fill-rule:nonzero;fill:rgb(12.941176%,9.019608%,8.235294%);fill-opacity:1;" d="M 8.1875 53.75 C 8.574219 54.179688 9.015625 54.554688 9.503906 54.867188 C 10.085938 55.28125 10.695312 55.652344 11.3125 56.007812 C 12.320312 56.613281 13.371094 57.140625 14.460938 57.585938 C 14.8125 57.679688 15.171875 57.476562 15.273438 57.128906 C 15.359375 56.777344 15.15625 56.417969 14.8125 56.316406 C 14.773438 56.300781 14.734375 56.285156 14.699219 56.269531 C 14.582031 56.226562 14.835938 56.332031 14.722656 56.28125 C 14.628906 56.238281 14.535156 56.199219 14.441406 56.152344 C 14.203125 56.042969 13.96875 55.929688 13.734375 55.8125 C 13.140625 55.511719 12.554688 55.199219 11.980469 54.867188 C 11.382812 54.523438 10.789062 54.164062 10.222656 53.769531 C 10.097656 53.679688 9.972656 53.589844 9.847656 53.496094 C 9.828125 53.484375 9.804688 53.46875 9.785156 53.449219 C 9.726562 53.398438 9.664062 53.351562 9.605469 53.300781 C 9.429688 53.152344 9.265625 52.992188 9.117188 52.816406 C 8.859375 52.5625 8.445312 52.5625 8.1875 52.816406 C 7.933594 53.078125 7.933594 53.492188 8.1875 53.753906 Z M 8.1875 53.75 "/>
<path style=" stroke:none;fill-rule:nonzero;fill:rgb(12.941176%,9.019608%,8.235294%);fill-opacity:1;" d="M 55.695312 45.289062 C 55.683594 45.324219 55.652344 45.46875 55.695312 45.304688 C 55.683594 45.339844 55.667969 45.375 55.648438 45.40625 C 55.613281 45.476562 55.578125 45.542969 55.539062 45.609375 C 55.5 45.683594 55.449219 45.757812 55.394531 45.820312 C 55.449219 45.769531 55.453125 45.75 55.394531 45.816406 C 55.367188 45.84375 55.34375 45.875 55.316406 45.902344 C 55.199219 46.027344 55.074219 46.140625 54.945312 46.25 C 54.882812 46.300781 55.042969 46.183594 54.9375 46.253906 C 54.90625 46.277344 54.871094 46.304688 54.835938 46.328125 C 54.757812 46.382812 54.679688 46.433594 54.597656 46.480469 C 54.445312 46.574219 54.289062 46.65625 54.128906 46.734375 C 54.078125 46.757812 54.027344 46.78125 53.976562 46.804688 C 53.964844 46.8125 53.820312 46.871094 53.902344 46.835938 C 53.984375 46.804688 53.84375 46.859375 53.828125 46.867188 C 53.78125 46.882812 53.738281 46.902344 53.695312 46.917969 C 53.296875 47.0625 52.894531 47.179688 52.484375 47.273438 C 52.132812 47.371094 51.929688 47.734375 52.023438 48.082031 C 52.125 48.429688 52.484375 48.632812 52.832031 48.542969 C 54.5 48.164062 56.355469 47.371094 56.96875 45.640625 C 57.066406 45.289062 56.859375 44.925781 56.507812 44.828125 C 56.160156 44.742188 55.800781 44.941406 55.699219 45.289062 Z M 55.695312 45.289062 "/>
<path style=" stroke:none;fill-rule:nonzero;fill:rgb(12.941176%,9.019608%,8.235294%);fill-opacity:1;" d="M 44.070312 100 L 94.070312 100 C 94.917969 100 94.917969 98.679688 94.070312 98.679688 L 44.070312 98.679688 C 43.222656 98.679688 43.21875 100 44.070312 100 Z M 44.070312 100 "/>
<path style=" stroke:none;fill-rule:nonzero;fill:rgb(12.941176%,9.019608%,8.235294%);fill-opacity:1;" d="M 40.621094 53.808594 C 40.195312 54.019531 39.808594 54.296875 39.46875 54.625 C 39.03125 55.144531 38.671875 55.71875 38.394531 56.335938 C 37.890625 57.460938 37.488281 58.628906 37.1875 59.824219 C 36.824219 61.132812 36.433594 62.4375 36.0625 63.742188 C 35.835938 64.542969 35.617188 65.339844 35.40625 66.144531 C 35.273438 66.835938 35.09375 67.519531 34.863281 68.191406 C 34.417969 69.210938 34.054688 70.269531 33.773438 71.347656 C 33.574219 72.171875 34.847656 72.527344 35.046875 71.699219 C 35.292969 70.773438 35.59375 69.867188 35.957031 68.980469 C 35.996094 68.878906 36.035156 68.777344 36.078125 68.679688 C 36.035156 68.78125 36.113281 68.597656 36.128906 68.566406 C 36.273438 68.164062 36.390625 67.75 36.46875 67.328125 C 36.664062 66.546875 36.867188 65.769531 37.082031 64.996094 C 37.460938 63.621094 37.863281 62.257812 38.257812 60.886719 C 38.566406 59.8125 38.824219 58.71875 39.238281 57.675781 C 39.496094 57.003906 39.828125 56.367188 40.234375 55.777344 C 40.328125 55.613281 40.464844 55.472656 40.625 55.371094 C 40.839844 55.222656 41.058594 55.074219 41.285156 54.949219 C 42.023438 54.53125 41.359375 53.390625 40.617188 53.808594 Z M 40.621094 53.808594 "/>
<path style=" stroke:none;fill-rule:nonzero;fill:rgb(12.941176%,9.019608%,8.235294%);fill-opacity:1;" d="M 53.351562 47.527344 C 51.410156 48.558594 49.40625 49.472656 47.417969 50.40625 C 45.464844 51.324219 43.445312 52.179688 41.578125 53.261719 C 40.335938 53.953125 39.289062 54.949219 38.535156 56.148438 C 38.085938 56.875 39.226562 57.539062 39.671875 56.816406 C 40.859375 54.886719 42.933594 53.996094 44.894531 53.054688 C 46.921875 52.082031 48.964844 51.144531 50.988281 50.171875 C 52.007812 49.6875 53.019531 49.195312 54.015625 48.667969 C 54.765625 48.269531 54.101562 47.132812 53.351562 47.527344 Z M 53.351562 47.527344 "/>
<path style=" stroke:none;fill-rule:nonzero;fill:rgb(12.941176%,9.019608%,8.235294%);fill-opacity:1;" d="M 36.988281 76.734375 C 36.964844 76.6875 36.941406 76.640625 36.921875 76.59375 C 36.902344 76.554688 36.820312 76.367188 36.867188 76.472656 C 36.910156 76.578125 36.824219 76.375 36.808594 76.335938 C 36.773438 76.253906 36.742188 76.167969 36.710938 76.085938 C 36.550781 75.675781 36.402344 75.265625 36.253906 74.851562 C 35.867188 73.753906 35.496094 72.652344 35.128906 71.550781 C 34.359375 69.242188 33.617188 66.921875 32.835938 64.613281 C 32.617188 63.890625 32.355469 63.179688 32.054688 62.488281 C 31.9375 62.28125 31.722656 62.15625 31.484375 62.160156 C 31.050781 62.207031 30.625 62.300781 30.214844 62.445312 C 29.519531 62.648438 28.828125 62.871094 28.140625 63.097656 C 26.578125 63.609375 25.023438 64.144531 23.476562 64.699219 C 22.929688 64.894531 22.375 65.089844 21.832031 65.304688 C 21.492188 65.414062 21.289062 65.765625 21.371094 66.117188 C 21.71875 68.625 22.25 71.117188 22.796875 73.585938 C 23.460938 76.757812 24.304688 79.890625 25.324219 82.964844 C 25.855469 84.492188 26.285156 86.0625 27.011719 87.511719 C 27.78125 89.101562 29.027344 90.410156 30.578125 91.25 C 32.300781 92.164062 34.324219 92.316406 36.164062 91.675781 C 37.804688 91.058594 39.28125 90.074219 40.480469 88.796875 C 41.734375 87.5 42.871094 86.097656 43.878906 84.601562 C 44.496094 83.695312 45.003906 82.714844 45.558594 81.773438 C 45.988281 81.039062 44.847656 80.371094 44.417969 81.105469 C 43.992188 81.828125 43.601562 82.574219 43.164062 83.285156 C 42.300781 84.617188 41.332031 85.878906 40.273438 87.058594 C 38.242188 89.414062 35.226562 91.570312 31.988281 90.4375 C 30.441406 89.855469 29.160156 88.734375 28.378906 87.277344 C 27.636719 85.957031 27.234375 84.492188 26.753906 83.066406 C 25.765625 80.097656 24.929688 77.082031 24.246094 74.03125 C 23.625 71.300781 23.027344 68.542969 22.644531 65.765625 L 22.183594 66.578125 C 23.34375 66.121094 24.527344 65.71875 25.707031 65.3125 C 27.222656 64.785156 28.742188 64.265625 30.277344 63.804688 C 30.554688 63.71875 30.839844 63.636719 31.121094 63.5625 C 31.222656 63.539062 31.324219 63.511719 31.425781 63.492188 C 31.464844 63.484375 31.511719 63.480469 31.550781 63.46875 C 31.640625 63.441406 31.339844 63.488281 31.488281 63.480469 L 30.917969 63.152344 C 30.933594 63.183594 30.941406 63.21875 30.960938 63.25 C 30.871094 63.097656 30.917969 63.148438 30.960938 63.253906 C 31.007812 63.378906 31.054688 63.503906 31.101562 63.628906 C 31.234375 63.992188 31.359375 64.363281 31.484375 64.730469 C 31.84375 65.777344 32.183594 66.828125 32.53125 67.878906 C 33.304688 70.238281 34.070312 72.601562 34.894531 74.945312 C 35.160156 75.78125 35.480469 76.601562 35.847656 77.398438 C 36.03125 77.714844 36.433594 77.820312 36.75 77.636719 C 37.0625 77.453125 37.167969 77.050781 36.984375 76.734375 Z M 36.988281 76.734375 "/>
<path style=" stroke:none;fill-rule:nonzero;fill:rgb(12.941176%,9.019608%,8.235294%);fill-opacity:1;" d="M 62.316406 82.808594 C 62.34375 81.867188 61.75 81.015625 60.851562 80.714844 C 59.863281 80.394531 58.660156 80.71875 58.121094 81.640625 C 57.691406 82.394531 57.6875 83.316406 58.109375 84.070312 C 58.695312 84.949219 59.785156 85.335938 60.796875 85.027344 C 61.773438 84.738281 62.308594 83.789062 62.316406 82.808594 C 62.316406 82.445312 62.023438 82.152344 61.65625 82.152344 C 61.292969 82.152344 60.996094 82.445312 60.996094 82.808594 C 60.996094 82.867188 60.996094 82.921875 60.992188 82.980469 C 60.988281 83.007812 60.980469 83.039062 60.980469 83.066406 C 60.980469 82.871094 61 82.949219 60.984375 83.011719 C 60.972656 83.078125 60.960938 83.136719 60.941406 83.195312 C 60.933594 83.226562 60.925781 83.257812 60.914062 83.285156 C 60.894531 83.347656 60.820312 83.457031 60.921875 83.28125 C 60.890625 83.335938 60.867188 83.398438 60.832031 83.453125 C 60.816406 83.480469 60.796875 83.507812 60.777344 83.535156 C 60.710938 83.644531 60.886719 83.414062 60.800781 83.507812 C 60.753906 83.558594 60.703125 83.605469 60.65625 83.65625 C 60.5625 83.742188 60.789062 83.566406 60.679688 83.636719 C 60.636719 83.664062 60.597656 83.691406 60.554688 83.710938 C 60.484375 83.75 60.4375 83.730469 60.574219 83.710938 C 60.539062 83.71875 60.5 83.734375 60.464844 83.75 C 60.425781 83.761719 60.386719 83.773438 60.34375 83.78125 L 60.304688 83.789062 C 60.230469 83.800781 60.246094 83.800781 60.347656 83.785156 C 60.324219 83.820312 60.105469 83.800781 60.0625 83.800781 C 60.011719 83.800781 59.964844 83.792969 59.914062 83.792969 C 59.839844 83.785156 59.851562 83.785156 59.949219 83.796875 C 59.917969 83.792969 59.890625 83.789062 59.859375 83.78125 C 59.777344 83.765625 59.695312 83.738281 59.613281 83.714844 C 59.476562 83.675781 59.75 83.785156 59.625 83.722656 C 59.59375 83.703125 59.558594 83.6875 59.523438 83.667969 C 59.492188 83.648438 59.464844 83.628906 59.429688 83.609375 C 59.316406 83.539062 59.546875 83.714844 59.449219 83.625 C 59.390625 83.570312 59.335938 83.515625 59.28125 83.457031 C 59.195312 83.363281 59.371094 83.589844 59.304688 83.484375 C 59.285156 83.457031 59.265625 83.429688 59.25 83.402344 C 59.226562 83.359375 59.195312 83.257812 59.160156 83.230469 C 59.234375 83.285156 59.214844 83.378906 59.183594 83.273438 C 59.171875 83.242188 59.164062 83.214844 59.152344 83.1875 C 59.136719 83.121094 59.132812 83.046875 59.109375 82.984375 C 59.164062 83.132812 59.125 83.128906 59.121094 83.058594 C 59.121094 83.035156 59.117188 83.011719 59.117188 82.988281 C 59.117188 82.921875 59.117188 82.851562 59.121094 82.78125 C 59.125 82.742188 59.128906 82.707031 59.132812 82.667969 C 59.140625 82.839844 59.117188 82.761719 59.132812 82.695312 C 59.148438 82.609375 59.167969 82.527344 59.195312 82.445312 C 59.207031 82.410156 59.222656 82.378906 59.234375 82.34375 C 59.183594 82.519531 59.203125 82.421875 59.226562 82.371094 C 59.261719 82.308594 59.316406 82.25 59.339844 82.1875 C 59.289062 82.316406 59.273438 82.269531 59.328125 82.210938 C 59.351562 82.183594 59.375 82.160156 59.402344 82.132812 C 59.429688 82.113281 59.457031 82.085938 59.484375 82.0625 C 59.398438 82.125 59.382812 82.140625 59.4375 82.097656 C 59.460938 82.085938 59.480469 82.070312 59.5 82.058594 C 59.535156 82.039062 59.570312 82.023438 59.601562 82.003906 C 59.722656 81.933594 59.453125 82.050781 59.589844 82.007812 C 59.671875 81.980469 59.753906 81.957031 59.835938 81.9375 L 59.878906 81.929688 C 59.949219 81.917969 59.9375 81.917969 59.839844 81.933594 C 59.886719 81.921875 59.933594 81.917969 59.980469 81.921875 C 60.035156 81.917969 60.085938 81.917969 60.136719 81.921875 C 60.167969 81.921875 60.203125 81.921875 60.234375 81.925781 C 60.3125 81.933594 60.300781 81.933594 60.203125 81.917969 C 60.304688 81.921875 60.40625 81.945312 60.503906 81.988281 L 60.542969 82 C 60.609375 82.027344 60.59375 82.019531 60.496094 81.980469 C 60.539062 82.007812 60.585938 82.03125 60.632812 82.050781 C 60.664062 82.066406 60.695312 82.089844 60.726562 82.109375 C 60.824219 82.167969 60.605469 82 60.734375 82.117188 C 60.757812 82.140625 60.78125 82.164062 60.808594 82.191406 C 60.925781 82.316406 60.75 82.097656 60.8125 82.191406 C 60.855469 82.257812 60.894531 82.324219 60.929688 82.394531 C 60.992188 82.507812 60.875 82.238281 60.917969 82.359375 C 60.929688 82.402344 60.945312 82.445312 60.957031 82.488281 C 60.96875 82.519531 60.976562 82.550781 60.980469 82.585938 C 60.996094 82.644531 60.996094 82.796875 60.988281 82.578125 C 60.992188 82.65625 61 82.734375 61 82.8125 C 61 83.175781 61.296875 83.472656 61.660156 83.472656 C 62.023438 83.472656 62.320312 83.175781 62.320312 82.8125 Z M 62.316406 82.808594 "/>
<path style=" stroke:none;fill-rule:nonzero;fill:rgb(12.941176%,9.019608%,8.235294%);fill-opacity:1;" d="M 73.453125 47.585938 C 73.152344 49.011719 72.742188 50.417969 72.335938 51.820312 C 71.699219 53.988281 71.003906 56.140625 70.242188 58.273438 C 68.839844 62.210938 67.410156 66.140625 65.898438 70.039062 C 65.175781 71.898438 64.4375 73.75 63.675781 75.589844 C 63.582031 75.941406 63.785156 76.304688 64.136719 76.402344 C 64.488281 76.488281 64.84375 76.289062 64.949219 75.941406 C 66.339844 72.566406 67.667969 69.167969 68.929688 65.746094 C 70.503906 61.507812 72.082031 57.261719 73.382812 52.929688 C 73.875 51.28125 74.367188 49.621094 74.726562 47.9375 C 74.90625 47.109375 73.632812 46.757812 73.457031 47.589844 Z M 73.453125 47.585938 "/>
<path style=" stroke:none;fill-rule:nonzero;fill:rgb(12.941176%,9.019608%,8.235294%);fill-opacity:1;" d="M 74.230469 48.675781 C 76.285156 49.648438 78.320312 50.65625 80.359375 51.664062 C 81.328125 52.144531 82.296875 52.628906 83.269531 53.109375 C 83.652344 53.300781 84.039062 53.488281 84.421875 53.683594 C 84.964844 53.957031 85.519531 54.40625 86.113281 54.554688 C 88.21875 55.074219 89.117188 57.53125 89.640625 59.402344 C 89.808594 59.984375 89.9375 60.578125 90.027344 61.179688 C 90.0625 61.402344 90.09375 61.625 90.125 61.847656 C 90.148438 62.015625 90.109375 61.722656 90.128906 61.894531 C 90.140625 61.957031 90.148438 62.015625 90.15625 62.078125 C 90.171875 62.214844 90.191406 62.351562 90.207031 62.488281 C 90.605469 65.683594 90.902344 68.894531 91.195312 72.105469 C 91.59375 76.433594 91.96875 80.765625 92.3125 85.101562 C 92.660156 89.371094 92.992188 93.644531 93.304688 97.917969 C 93.339844 98.390625 93.375 98.867188 93.410156 99.339844 C 93.417969 99.699219 93.707031 99.992188 94.070312 100 C 94.433594 99.996094 94.726562 99.703125 94.726562 99.339844 C 94.421875 95.09375 94.097656 90.84375 93.753906 86.597656 C 93.398438 82.167969 93.023438 77.738281 92.625 73.308594 C 92.320312 69.910156 92.007812 66.503906 91.601562 63.113281 C 91.484375 62.136719 91.382812 61.148438 91.195312 60.183594 C 90.78125 58.046875 89.9375 55.605469 88.21875 54.164062 C 87.792969 53.800781 87.304688 53.527344 86.773438 53.359375 C 86.667969 53.324219 86.542969 53.316406 86.445312 53.285156 C 86.3125 53.226562 86.1875 53.160156 86.070312 53.082031 C 85.773438 52.914062 85.480469 52.742188 85.175781 52.589844 C 84.316406 52.144531 83.441406 51.722656 82.570312 51.292969 C 80.472656 50.25 78.375 49.210938 76.265625 48.191406 C 75.808594 47.96875 75.355469 47.75 74.894531 47.535156 C 74.582031 47.359375 74.183594 47.464844 73.992188 47.769531 C 73.8125 48.085938 73.917969 48.488281 74.230469 48.671875 Z M 74.230469 48.675781 "/>
<path style=" stroke:none;fill-rule:nonzero;fill:rgb(12.941176%,9.019608%,8.235294%);fill-opacity:1;" d="M 54.523438 48.144531 C 55.144531 50.167969 55.757812 52.191406 56.367188 54.214844 C 57.332031 57.402344 58.296875 60.585938 59.265625 63.773438 C 59.984375 66.144531 60.707031 68.511719 61.4375 70.878906 C 61.855469 72.242188 62.265625 73.613281 62.707031 74.96875 C 63.152344 76.328125 63.6875 77.648438 64.121094 79.007812 C 64.859375 81.375 65.160156 83.859375 65.003906 86.339844 C 64.917969 87.949219 64.710938 89.558594 64.515625 91.160156 C 64.253906 93.332031 63.960938 95.503906 63.636719 97.667969 C 63.566406 98.160156 63.488281 98.648438 63.410156 99.140625 C 63.324219 99.488281 63.527344 99.847656 63.871094 99.953125 C 64.222656 100.046875 64.582031 99.839844 64.683594 99.492188 C 65.332031 95.433594 65.902344 91.339844 66.257812 87.246094 C 66.460938 85.101562 66.363281 82.9375 65.957031 80.820312 C 65.675781 79.53125 65.292969 78.261719 64.816406 77.03125 C 64.304688 75.648438 63.851562 74.242188 63.414062 72.832031 C 62.574219 70.113281 61.742188 67.394531 60.914062 64.671875 C 59.9375 61.457031 58.964844 58.242188 57.988281 55.023438 C 57.292969 52.726562 56.597656 50.425781 55.902344 48.128906 C 55.867188 48.015625 55.832031 47.90625 55.800781 47.792969 C 55.550781 46.984375 54.277344 47.328125 54.527344 48.144531 Z M 54.523438 48.144531 "/>
<path style=" stroke:none;fill-rule:nonzero;fill:rgb(12.941176%,9.019608%,8.235294%);fill-opacity:1;" d="M 54.339844 47.105469 C 52.992188 47.804688 51.738281 48.660156 50.601562 49.660156 C 49.492188 50.554688 48.496094 51.574219 47.632812 52.703125 C 47.484375 52.960938 47.527344 53.289062 47.734375 53.5 C 48.382812 54.253906 49.027344 55.011719 49.664062 55.773438 C 49.929688 56.089844 50.195312 56.40625 50.457031 56.726562 C 50.554688 56.847656 50.652344 56.964844 50.746094 57.085938 C 50.777344 57.125 50.910156 57.242188 50.777344 57.125 C 50.808594 57.15625 50.835938 57.195312 50.859375 57.234375 L 51.097656 56.332031 C 50.523438 56.667969 49.996094 57.074219 49.519531 57.535156 C 48.804688 58.3125 49.332031 59.171875 49.808594 59.925781 C 50.324219 60.742188 50.8125 61.578125 51.308594 62.40625 C 53.082031 65.382812 54.84375 68.363281 56.652344 71.316406 C 57.46875 72.652344 58.28125 73.988281 59.15625 75.285156 C 59.632812 75.984375 60.773438 75.324219 60.296875 74.617188 C 58.613281 72.128906 57.09375 69.519531 55.550781 66.945312 C 54.097656 64.523438 52.675781 62.082031 51.203125 59.671875 C 51.121094 59.535156 51.035156 59.394531 50.949219 59.257812 C 50.816406 59.050781 50.683594 58.847656 50.570312 58.628906 C 50.53125 58.5625 50.503906 58.496094 50.480469 58.425781 C 50.46875 58.386719 50.464844 58.34375 50.453125 58.308594 C 50.488281 58.417969 50.476562 58.289062 50.460938 58.375 C 50.457031 58.390625 50.410156 58.578125 50.429688 58.492188 C 50.441406 58.441406 50.339844 58.589844 50.433594 58.488281 C 50.488281 58.429688 50.546875 58.371094 50.605469 58.316406 C 50.742188 58.191406 50.886719 58.074219 51.039062 57.964844 C 51.273438 57.792969 51.519531 57.632812 51.761719 57.472656 C 52.074219 57.285156 52.179688 56.882812 52 56.570312 C 50.992188 55.167969 49.796875 53.875 48.667969 52.570312 L 48.773438 53.367188 C 49.128906 52.90625 49.515625 52.472656 49.933594 52.0625 C 50.441406 51.546875 50.980469 51.0625 51.535156 50.59375 C 52.59375 49.675781 53.757812 48.886719 55.003906 48.246094 C 55.316406 48.058594 55.421875 47.65625 55.242188 47.339844 C 55.050781 47.035156 54.65625 46.929688 54.339844 47.105469 Z M 54.339844 47.105469 "/>
<path style=" stroke:none;fill-rule:nonzero;fill:rgb(12.941176%,9.019608%,8.235294%);fill-opacity:1;" d="M 73.515625 48.246094 C 74.765625 48.886719 75.929688 49.675781 76.988281 50.597656 C 77.542969 51.0625 78.078125 51.550781 78.589844 52.0625 C 79.003906 52.472656 79.394531 52.90625 79.75 53.371094 L 79.851562 52.570312 C 78.726562 53.875 77.527344 55.167969 76.519531 56.570312 C 76.34375 56.886719 76.449219 57.285156 76.757812 57.472656 C 77.253906 57.753906 77.707031 58.105469 78.105469 58.511719 C 78.160156 58.570312 78.078125 58.480469 78.078125 58.476562 C 78.09375 58.582031 78.070312 58.441406 78.066406 58.421875 C 78.046875 58.339844 78.070312 58.308594 78.058594 58.367188 C 77.996094 58.554688 77.910156 58.730469 77.800781 58.894531 C 77.683594 59.089844 77.558594 59.277344 77.441406 59.46875 C 76.894531 60.351562 76.367188 61.25 75.835938 62.140625 C 74.109375 65.039062 72.386719 67.941406 70.625 70.820312 C 69.84375 72.097656 69.0625 73.378906 68.222656 74.617188 C 67.746094 75.324219 68.890625 75.984375 69.363281 75.285156 C 71.125 72.679688 72.710938 69.945312 74.328125 67.246094 C 75.757812 64.863281 77.144531 62.449219 78.609375 60.089844 C 79.007812 59.445312 79.683594 58.582031 79.21875 57.808594 C 78.832031 57.167969 78.035156 56.738281 77.421875 56.332031 L 77.660156 57.234375 C 77.683594 57.195312 77.710938 57.160156 77.742188 57.125 C 77.617188 57.246094 77.726562 57.144531 77.757812 57.109375 C 77.851562 56.992188 77.945312 56.875 78.039062 56.757812 C 78.308594 56.425781 78.582031 56.097656 78.855469 55.773438 C 79.492188 55.011719 80.136719 54.253906 80.785156 53.503906 C 80.992188 53.289062 81.035156 52.964844 80.886719 52.703125 C 80.023438 51.574219 79.027344 50.554688 77.921875 49.664062 C 76.78125 48.664062 75.527344 47.804688 74.183594 47.105469 C 73.867188 46.933594 73.46875 47.035156 73.277344 47.34375 C 73.097656 47.660156 73.203125 48.058594 73.515625 48.246094 Z M 73.515625 48.246094 "/>
<path style=" stroke:none;fill-rule:nonzero;fill:rgb(12.941176%,9.019608%,8.235294%);fill-opacity:1;" d="M 85.46875 54.269531 C 85.28125 56.574219 84.980469 58.871094 84.671875 61.164062 C 84.246094 64.3125 83.777344 67.453125 83.308594 70.589844 C 82.78125 74.09375 82.253906 77.597656 81.71875 81.101562 C 81.589844 81.960938 81.460938 82.820312 81.332031 83.679688 C 81.21875 84.253906 81.144531 84.835938 81.101562 85.417969 C 81.105469 86.371094 81.167969 87.320312 81.285156 88.261719 C 81.648438 91.960938 82.164062 95.640625 82.65625 99.324219 C 82.667969 99.683594 82.957031 99.972656 83.316406 99.984375 C 83.636719 99.984375 84.023438 99.679688 83.976562 99.324219 C 83.527344 95.964844 83.066406 92.605469 82.703125 89.238281 C 82.585938 88.132812 82.464844 87.027344 82.425781 85.914062 C 82.421875 85.757812 82.417969 85.597656 82.421875 85.4375 C 82.421875 85.371094 82.429688 85.300781 82.429688 85.234375 C 82.433594 85.207031 82.4375 85.179688 82.4375 85.15625 C 82.445312 85.085938 82.441406 85.113281 82.421875 85.246094 L 82.449219 85.0625 C 82.582031 84.1875 82.710938 83.3125 82.84375 82.4375 C 83.847656 75.746094 84.90625 69.0625 85.828125 62.363281 C 86.199219 59.671875 86.570312 56.976562 86.789062 54.269531 C 86.785156 53.90625 86.492188 53.613281 86.128906 53.609375 C 85.769531 53.617188 85.476562 53.90625 85.46875 54.269531 Z M 85.46875 54.269531 "/>
<path style=" stroke:none;fill-rule:nonzero;fill:rgb(12.941176%,9.019608%,8.235294%);fill-opacity:1;" d="M 40.621094 54.578125 C 40.8125 56.9375 41.125 59.292969 41.441406 61.640625 C 41.863281 64.765625 42.324219 67.886719 42.792969 71.003906 C 43.316406 74.503906 43.851562 78.003906 44.378906 81.507812 C 44.511719 82.382812 44.640625 83.253906 44.773438 84.128906 L 44.863281 84.75 C 44.878906 84.855469 44.894531 84.957031 44.910156 85.0625 C 44.921875 85.136719 44.941406 85.410156 44.921875 85.125 C 44.929688 85.257812 44.941406 85.386719 44.941406 85.519531 C 44.925781 86.488281 44.863281 87.457031 44.75 88.417969 C 44.394531 92.070312 43.894531 95.707031 43.410156 99.339844 C 43.363281 99.695312 43.746094 100 44.066406 100 C 44.429688 99.992188 44.71875 99.703125 44.726562 99.339844 C 45.171875 96.035156 45.613281 92.726562 45.96875 89.40625 C 46.085938 88.289062 46.203125 87.167969 46.25 86.046875 C 46.292969 84.90625 46.046875 83.78125 45.878906 82.65625 C 44.875 75.953125 43.8125 69.257812 42.882812 62.546875 C 42.515625 59.898438 42.15625 57.242188 41.9375 54.578125 C 41.929688 54.21875 41.640625 53.925781 41.277344 53.917969 C 40.917969 53.921875 40.621094 54.214844 40.621094 54.578125 Z M 40.621094 54.578125 "/>
<path style=" stroke:none;fill-rule:nonzero;fill:rgb(12.941176%,9.019608%,8.235294%);fill-opacity:1;" d="M 61.214844 36.914062 C 62.089844 37.367188 63.066406 37.589844 64.050781 37.570312 C 65.058594 37.5625 66.085938 37.367188 66.894531 36.738281 C 67.148438 36.480469 67.148438 36.0625 66.894531 35.804688 C 66.632812 35.554688 66.222656 35.554688 65.960938 35.804688 C 66.15625 35.652344 65.984375 35.78125 65.933594 35.816406 C 65.875 35.851562 65.816406 35.886719 65.757812 35.917969 C 65.714844 35.941406 65.507812 36.027344 65.671875 35.964844 C 65.585938 35.996094 65.507812 36.027344 65.425781 36.054688 C 64.949219 36.203125 64.453125 36.269531 63.957031 36.25 C 63.484375 36.261719 63.011719 36.199219 62.558594 36.0625 C 62.46875 36.035156 62.378906 36.003906 62.292969 35.972656 C 62.265625 35.960938 62.234375 35.945312 62.207031 35.9375 C 62.367188 35.984375 62.25 35.957031 62.207031 35.9375 C 62.097656 35.886719 61.988281 35.832031 61.882812 35.777344 C 61.566406 35.601562 61.167969 35.703125 60.980469 36.011719 C 60.800781 36.328125 60.90625 36.726562 61.214844 36.914062 Z M 61.214844 36.914062 "/>
<path style=" stroke:none;fill-rule:nonzero;fill:rgb(12.941176%,9.019608%,8.235294%);fill-opacity:1;" d="M 63.753906 30.1875 C 63.886719 30.664062 63.992188 31.152344 64.074219 31.640625 L 64.050781 31.464844 C 64.058594 31.53125 64.0625 31.601562 64.054688 31.667969 L 64.078125 31.492188 C 64.074219 31.523438 64.066406 31.550781 64.054688 31.582031 L 64.121094 31.425781 C 64.113281 31.445312 64.101562 31.464844 64.089844 31.480469 L 64.195312 31.347656 C 64.179688 31.367188 64.164062 31.382812 64.144531 31.394531 L 64.28125 31.292969 C 64.242188 31.316406 64.203125 31.335938 64.164062 31.351562 L 64.324219 31.285156 C 64.261719 31.3125 64.195312 31.332031 64.128906 31.34375 L 64.304688 31.320312 C 64.242188 31.328125 64.183594 31.328125 64.121094 31.320312 L 64.296875 31.34375 C 64.226562 31.332031 64.160156 31.316406 64.089844 31.308594 C 63.917969 31.269531 63.738281 31.292969 63.582031 31.375 C 63.269531 31.558594 63.164062 31.960938 63.347656 32.277344 C 63.429688 32.425781 63.574219 32.535156 63.742188 32.578125 C 63.890625 32.597656 64.035156 32.636719 64.183594 32.644531 C 64.410156 32.644531 64.632812 32.59375 64.832031 32.492188 C 65.085938 32.378906 65.273438 32.15625 65.34375 31.886719 C 65.386719 31.667969 65.386719 31.445312 65.335938 31.226562 C 65.257812 30.761719 65.148438 30.292969 65.027344 29.835938 C 64.929688 29.484375 64.566406 29.277344 64.214844 29.375 C 63.863281 29.472656 63.65625 29.835938 63.753906 30.1875 Z M 63.753906 30.1875 "/>
<path style=" stroke:none;fill-rule:nonzero;fill:rgb(12.941176%,9.019608%,8.235294%);fill-opacity:1;" d="M 55.980469 26.089844 C 55.738281 26.878906 55.898438 28.695312 57.390625 28.851562 C 59.367188 28.839844 59.472656 26.644531 58.808594 25.609375 C 58.261719 24.765625 56.660156 24.414062 55.980469 26.089844 Z M 55.980469 26.089844 "/>
<path style=" stroke:none;fill-rule:nonzero;fill:rgb(12.941176%,9.019608%,8.235294%);fill-opacity:1;" d="M 71.808594 26.089844 C 72.050781 26.878906 71.894531 28.695312 70.398438 28.851562 C 68.421875 28.839844 68.316406 26.644531 68.980469 25.609375 C 69.527344 24.765625 71.128906 24.414062 71.808594 26.089844 Z M 71.808594 26.089844 "/>
</g>
</svg>
