<?xml version="1.0" encoding="UTF-8"?>
<svg xmlns="http://www.w3.org/2000/svg" xmlns:xlink="http://www.w3.org/1999/xlink" width="100px" height="100px" viewBox="0 0 100 100" version="1.1">
<g id="surface1">
<path style=" stroke:none;fill-rule:nonzero;fill:rgb(0%,0%,0%);fill-opacity:1;" d="M 42.890625 57.128906 C 43.5 57.738281 43.5 58.726562 42.890625 59.335938 L 25.300781 76.929688 C 24.691406 77.539062 23.699219 77.539062 23.089844 76.925781 C 22.480469 76.316406 22.480469 75.328125 23.09375 74.71875 L 40.679688 57.128906 C 41.289062 56.519531 42.277344 56.519531 42.886719 57.128906 Z M 83.65625 75.878906 C 83.496094 76.402344 83.070312 76.804688 82.539062 76.9375 C 82.003906 77.066406 81.441406 76.910156 81.054688 76.519531 L 75.75 71.21875 L 72.871094 74.101562 L 78.175781 79.40625 C 78.5625 79.792969 78.71875 80.355469 78.585938 80.886719 C 78.453125 81.421875 78.050781 81.84375 77.527344 82.003906 C 76.574219 82.292969 75.578125 82.4375 74.582031 82.4375 C 71.527344 82.4375 68.378906 81.125 66.007812 78.757812 C 63.738281 76.488281 62.421875 73.527344 62.332031 70.539062 L 52.101562 60.308594 C 51.972656 60.238281 51.855469 60.152344 51.753906 60.050781 L 50.667969 58.960938 C 50.253906 60.320312 49.515625 61.554688 48.507812 62.558594 L 29.472656 81.59375 C 27.960938 83.121094 25.921875 84.019531 23.773438 84.101562 L 23.480469 84.101562 C 21.464844 84.121094 19.527344 83.332031 18.097656 81.910156 C 15.054688 78.867188 15.199219 73.765625 18.421875 70.539062 L 37.460938 51.503906 C 38.460938 50.496094 39.695312 49.753906 41.054688 49.34375 L 39.96875 48.261719 C 39.867188 48.15625 39.777344 48.039062 39.710938 47.914062 L 29.445312 37.648438 C 26.460938 37.558594 23.503906 36.242188 21.242188 33.976562 C 18.097656 30.824219 16.820312 26.304688 17.992188 22.453125 C 18.152344 21.925781 18.574219 21.523438 19.109375 21.390625 C 19.640625 21.257812 20.203125 21.414062 20.59375 21.804688 L 25.898438 27.105469 L 28.78125 24.222656 L 23.46875 18.929688 C 23.078125 18.539062 22.921875 17.976562 23.054688 17.445312 C 23.1875 16.910156 23.589844 16.488281 24.113281 16.328125 C 27.964844 15.15625 32.488281 16.429688 35.636719 19.578125 C 37.90625 21.84375 39.226562 24.804688 39.316406 27.792969 L 52.988281 41.464844 L 74.046875 20.394531 C 74.152344 20.285156 74.277344 20.191406 74.414062 20.117188 L 81.699219 16.210938 C 82.304688 15.890625 83.050781 16 83.535156 16.484375 C 84.023438 16.96875 84.136719 17.714844 83.8125 18.320312 L 79.890625 25.605469 C 79.820312 25.738281 79.730469 25.863281 79.621094 25.96875 L 58.554688 47.035156 L 72.199219 60.679688 C 75.183594 60.765625 78.140625 62.085938 80.402344 64.351562 C 83.554688 67.5 84.828125 72.023438 83.65625 75.871094 Z M 55.21875 54.371094 L 45.648438 44.800781 L 43.328125 47.121094 L 52.898438 56.691406 Z M 52.0625 46.792969 L 53.222656 47.953125 L 77.246094 23.929688 L 78.59375 21.421875 L 76.085938 22.769531 Z M 31.195312 34.988281 L 41.117188 44.90625 L 44.542969 41.484375 C 45.152344 40.871094 46.140625 40.871094 46.75 41.484375 L 49.851562 44.585938 L 50.769531 43.667969 L 36.648438 29.546875 C 36.339844 29.238281 36.175781 28.820312 36.1875 28.386719 C 36.269531 26.027344 35.265625 23.621094 33.429688 21.789062 C 31.980469 20.3125 30.082031 19.359375 28.035156 19.078125 L 32.085938 23.128906 C 32.695312 23.738281 32.695312 24.726562 32.085938 25.335938 L 26.992188 30.429688 C 26.382812 31.042969 25.394531 31.042969 24.78125 30.429688 L 20.734375 26.382812 C 21.015625 28.425781 21.96875 30.320312 23.4375 31.769531 C 25.273438 33.605469 27.679688 34.609375 30.035156 34.53125 L 30.089844 34.53125 C 30.503906 34.53125 30.902344 34.695312 31.195312 34.988281 Z M 47.878906 56.171875 L 43.839844 52.136719 C 42.285156 52.023438 40.761719 52.597656 39.671875 53.710938 L 20.632812 72.753906 C 18.625 74.757812 18.484375 77.878906 20.308594 79.707031 C 21.199219 80.582031 22.414062 81.042969 23.664062 80.976562 C 25.019531 80.921875 26.304688 80.355469 27.257812 79.382812 L 46.296875 60.351562 C 47.269531 59.398438 47.835938 58.113281 47.890625 56.753906 C 47.898438 56.558594 47.894531 56.367188 47.878906 56.175781 Z M 80.90625 71.949219 C 80.625 69.902344 79.671875 68.007812 78.199219 66.5625 C 76.363281 64.726562 73.960938 63.722656 71.605469 63.804688 C 71.171875 63.816406 70.753906 63.652344 70.445312 63.347656 L 56.347656 49.246094 L 55.429688 50.164062 L 58.535156 53.265625 C 59.144531 53.878906 59.144531 54.867188 58.535156 55.476562 L 55.109375 58.898438 L 64.996094 68.789062 C 65.300781 69.09375 65.46875 69.511719 65.453125 69.945312 C 65.375 72.304688 66.378906 74.710938 68.214844 76.546875 C 69.664062 78.019531 71.558594 78.972656 73.605469 79.257812 L 69.554688 75.203125 C 69.261719 74.910156 69.097656 74.515625 69.097656 74.101562 C 69.097656 73.683594 69.261719 73.289062 69.554688 72.992188 L 74.648438 67.898438 C 75.261719 67.289062 76.25 67.289062 76.859375 67.898438 Z M 80.90625 71.949219 "/>
</g>
</svg>
