<?xml version="1.0" encoding="UTF-8"?>
<svg xmlns="http://www.w3.org/2000/svg" xmlns:xlink="http://www.w3.org/1999/xlink" width="100px" height="100px" viewBox="0 0 100 100" version="1.1">
<g id="surface1">
<path style=" stroke:none;fill-rule:nonzero;fill:rgb(37.647059%,49.019608%,54.509804%);fill-opacity:1;" d="M 93.125 22.917969 L 75 40.832031 C 75 40.832031 69.582031 40.832031 64.167969 35.417969 C 58.75 30 58.75 24.582031 58.75 24.582031 L 76.875 6.457031 C 66.667969 3.957031 54.375 7.292969 46.875 14.792969 C 35.625 26.042969 45.625 40.417969 42.707031 43.332031 C 26.875 59.792969 10.625 72.292969 10.207031 72.917969 C 5.417969 77.707031 5.207031 85.417969 9.792969 90 C 14.375 94.582031 22.082031 94.375 26.875 89.582031 C 27.5 88.957031 40.832031 72.082031 56.457031 56.457031 C 59.375 53.542969 73.125 64.167969 84.792969 52.707031 C 92.082031 45.207031 95.625 33.125 93.125 22.917969 Z M 19.582031 85.625 C 16.667969 85.625 14.375 83.332031 14.375 80.417969 C 14.375 77.292969 16.667969 75 19.582031 75 C 22.5 75 24.792969 77.292969 24.792969 80.207031 C 24.792969 83.125 22.5 85.625 19.582031 85.625 Z M 19.582031 85.625 "/>
</g>
</svg>
