<?xml version="1.0" encoding="UTF-8"?>
<svg xmlns="http://www.w3.org/2000/svg" xmlns:xlink="http://www.w3.org/1999/xlink" width="100px" height="100px" viewBox="0 0 100 100" version="1.1">
<g id="surface1">
<path style=" stroke:none;fill-rule:nonzero;fill:rgb(0%,0%,0%);fill-opacity:1;" d="M 24.609375 65.234375 C 19.53125 65.234375 15.429688 69.335938 15.429688 74.414062 C 15.429688 79.492188 19.53125 83.59375 24.609375 83.59375 C 29.6875 83.59375 33.789062 79.492188 33.789062 74.414062 C 33.789062 69.335938 29.6875 65.234375 24.609375 65.234375 Z M 24.609375 77.890625 C 22.695312 77.890625 21.09375 76.289062 21.09375 74.375 C 21.09375 72.460938 22.695312 70.859375 24.609375 70.859375 C 26.523438 70.859375 28.125 72.460938 28.125 74.375 C 28.125 76.328125 26.5625 77.890625 24.609375 77.890625 Z M 82.34375 64.84375 C 77.265625 64.84375 73.164062 68.945312 73.164062 74.023438 C 73.164062 79.101562 77.265625 83.203125 82.34375 83.203125 C 87.421875 83.203125 91.523438 79.101562 91.523438 74.023438 C 91.523438 68.945312 87.421875 64.84375 82.34375 64.84375 Z M 82.34375 77.5 C 80.429688 77.5 78.828125 75.898438 78.828125 73.984375 C 78.828125 72.070312 80.429688 70.46875 82.34375 70.46875 C 84.257812 70.46875 85.859375 72.070312 85.859375 73.984375 C 85.859375 75.9375 84.296875 77.5 82.34375 77.5 Z M -0.195312 69.179688 C -0.195312 70.976562 1.25 72.382812 3.007812 72.382812 L 11.835938 72.382812 C 12.1875 72.382812 12.5 72.109375 12.578125 71.796875 C 13.59375 66.054688 18.59375 62.070312 24.609375 62.070312 C 30.625 62.070312 35.664062 66.054688 36.640625 71.796875 C 36.71875 72.148438 36.992188 72.382812 37.382812 72.382812 L 50.742188 72.382812 L 50.742188 58.203125 L -0.195312 58.203125 Z M 99.0625 65.820312 L 97.109375 65.820312 L 97.109375 57.226562 C 97.109375 54.296875 94.726562 51.914062 91.757812 51.914062 L 82.265625 51.914062 C 82.070312 51.914062 81.875 51.796875 81.71875 51.679688 L 66.875 37.226562 C 66.210938 36.5625 65.273438 36.171875 64.296875 36.132812 L 53.554688 36.132812 L 53.554688 72.382812 L 69.53125 72.382812 C 69.882812 72.382812 70.195312 72.109375 70.273438 71.796875 C 71.289062 66.054688 76.289062 61.679688 82.304688 61.679688 C 88.320312 61.679688 93.359375 66.054688 94.335938 71.796875 C 94.414062 72.148438 94.6875 72.382812 95.078125 72.382812 L 96.328125 72.382812 C 98.242188 72.382812 99.726562 70.859375 99.726562 68.984375 L 99.726562 66.523438 C 99.804688 66.171875 99.453125 65.820312 99.0625 65.820312 Z M 74.648438 51.953125 L 58.476562 51.953125 C 58.085938 51.953125 57.734375 51.601562 57.734375 51.210938 L 57.734375 40.898438 C 57.734375 40.507812 58.085938 40.15625 58.476562 40.15625 L 63.90625 40.15625 C 64.101562 40.15625 64.296875 40.273438 64.492188 40.390625 L 75.234375 50.664062 C 75.585938 51.171875 75.273438 51.953125 74.648438 51.953125 Z M 74.648438 51.953125 "/>
<path style=" stroke:none;fill-rule:nonzero;fill:rgb(0%,0%,0%);fill-opacity:1;" d="M 22.578125 52.929688 L 6.679688 52.929688 L 6.679688 37.03125 L 12.8125 37.03125 L 12.8125 42.109375 L 16.445312 42.109375 L 16.445312 37.03125 L 22.578125 37.03125 Z M 43.320312 52.929688 L 27.460938 52.929688 L 27.460938 37.03125 L 33.59375 37.03125 L 33.59375 42.109375 L 37.226562 42.109375 L 37.226562 37.03125 L 43.359375 37.03125 L 43.359375 52.929688 Z M 33.085938 32.148438 L 17.1875 32.148438 L 17.1875 16.25 L 23.320312 16.25 L 23.320312 21.328125 L 26.953125 21.328125 L 26.953125 16.25 L 33.085938 16.25 Z M 33.085938 32.148438 "/>
</g>
</svg>
